<svg width="62" height="29" viewBox="0 0 62 29" fill="none" xmlns="http://www.w3.org/2000/svg">
<path d="M61.7584 12.6261V15.5644C61.7584 15.91 61.5837 16.0829 61.4089 16.2557C61.2341 16.4286 60.8846 16.6014 60.7098 16.6014H39.3876V19.8853C39.3876 20.231 39.3876 20.4039 39.3876 20.5767C39.3876 20.7495 39.3876 20.9224 39.5624 21.0952C39.5624 21.2681 39.7372 21.4409 39.7372 21.6137C39.7372 21.7866 39.9119 21.9594 40.0867 22.1323C40.4363 22.4779 40.611 22.6508 40.9606 22.8236C41.3101 22.9965 41.6597 22.9965 42.0092 22.9965C42.3587 22.9965 42.5335 23.1693 42.8831 23.3421C43.2326 23.515 43.4074 23.8607 43.4074 24.2063V26.4532C43.4074 26.7989 43.2326 27.1446 42.8831 27.3174C42.5335 27.6631 42.184 27.836 42.0092 27.836C40.7858 27.836 39.7372 27.6631 38.6885 27.1446C38.5138 27.1446 38.5138 26.9718 38.339 26.9718H38.1642C37.8147 26.7989 37.6399 26.7989 37.4651 26.6261C37.4651 26.6261 37.2904 26.6261 37.2904 26.4532C36.9408 26.2804 36.766 26.1076 36.5913 25.9347C36.4165 25.7619 36.2417 25.7619 36.067 25.4162C35.7174 25.0705 35.3679 24.7248 35.0183 24.2063C34.6688 23.6878 34.494 23.3421 34.3192 22.8236C34.1445 22.6508 34.1445 22.3051 34.1445 22.1323C33.9697 21.9594 33.9697 21.6137 33.9697 21.4409C33.9697 21.2681 33.9697 20.9224 33.7949 20.7495V20.5767C33.7949 20.4039 33.7949 20.0582 33.7949 19.8853V1.39152C33.7949 1.04584 33.9697 0.872999 34.1445 0.700159C34.3192 0.35448 34.494 0.181641 34.8436 0.181641H38.1642C38.5138 0.181641 38.6885 0.35448 38.8633 0.52732L39.0381 0.700159C39.2129 0.872999 39.2129 1.04584 39.2129 1.21868V11.4162H60.535C60.8846 11.4162 61.0594 11.589 61.2341 11.7619C61.7584 12.1076 61.7584 12.2804 61.7584 12.6261Z" fill="#111111"/>
<path d="M28.5524 20.4039C28.5524 21.4409 28.3776 22.4779 27.8533 23.515C27.329 24.552 26.8046 25.2434 26.1056 25.9347C25.4065 26.6261 24.5326 27.1446 23.484 27.6631C22.4353 28.0088 21.3867 28.1816 20.1633 28.1816H8.80312C7.57972 28.1816 6.53108 28.0088 5.48245 27.6631C4.43382 27.3174 3.55996 26.7989 2.86087 25.9347C2.16178 25.2434 1.46269 24.3792 1.11315 23.515C0.588835 22.4779 0.414062 21.4409 0.414062 20.231V19.3668C0.414062 18.3298 0.588835 17.1199 1.11315 16.2557C1.63747 15.2187 2.16178 14.5273 2.86087 13.836C3.55996 13.1446 4.60859 12.6261 5.48245 12.2804C6.53108 11.9347 7.57972 11.7619 8.80312 11.7619H22.7849V1.21868C22.7849 0.872999 22.9597 0.700159 23.1344 0.52732C23.484 0.35448 23.6587 0.181641 24.0083 0.181641H27.329C27.6785 0.181641 27.8533 0.35448 28.2028 0.52732C28.3776 0.700159 28.5524 1.04584 28.5524 1.39152V20.4039ZM22.9597 17.6384C22.9597 16.9471 22.6101 16.7742 22.0858 16.7742H8.80312C8.10403 16.6014 7.40494 16.9471 6.88063 17.4656C6.35631 17.9841 6.00677 18.6755 6.00677 19.5397V20.4039C6.00677 21.2681 6.35631 21.9594 6.88063 22.4779C7.40494 22.9965 8.10403 23.1693 8.80312 23.1693H20.1633C21.0372 23.1693 21.5615 22.9965 22.0858 22.4779C22.6101 21.9594 22.9597 21.2681 22.9597 20.4039V17.6384Z" fill="#111111"/>
</svg>
