<svg width="280" height="88" viewBox="0 0 280 88" fill="none" xmlns="http://www.w3.org/2000/svg">
<g clip-path="url(#clip0_6701_30404)">
<path d="M114.007 36.9378C114.007 37.4563 113.832 37.9748 113.658 38.4933C113.483 39.0119 113.133 39.3575 112.784 39.7032C112.434 40.0489 111.91 40.3946 111.386 40.5674C110.861 40.7403 110.337 40.9131 109.813 40.9131H104.22C103.696 40.9131 103.171 40.7403 102.647 40.5674C102.123 40.3946 101.773 40.0489 101.249 39.7032C100.899 39.3575 100.55 39.0119 100.375 38.4933C100.2 37.9748 100.025 37.4563 100.025 36.9378V33.9995C100.025 33.481 100.2 32.9625 100.375 32.444C100.55 31.9254 100.899 31.5798 101.249 31.2341C101.773 30.8884 102.123 30.7156 102.647 30.3699C103.171 30.197 103.696 30.0242 104.22 30.0242H111.211V27.6045C111.211 27.4316 111.211 27.2588 111.386 27.2588C111.56 27.0859 111.56 27.0859 111.735 27.0859H113.308C113.483 27.0859 113.658 27.0859 113.658 27.2588C113.832 27.4316 113.832 27.4316 113.832 27.6045V36.9378H114.007ZM111.211 33.1353C111.211 32.7896 111.036 32.6168 110.686 32.6168H104.22C103.87 32.6168 103.521 32.7896 103.171 32.9625C102.822 33.1353 102.822 33.481 102.822 33.9995V37.1106C102.822 37.6291 102.997 37.9748 103.171 38.1477C103.521 38.3205 103.696 38.4933 104.22 38.4933H109.813C110.162 38.4933 110.512 38.3205 110.861 38.1477C111.211 37.9748 111.211 37.6291 111.211 37.1106V33.1353Z" fill="white"/>
<path d="M133.407 36.9378C133.407 37.4563 133.232 37.9748 133.057 38.4933C132.882 39.0119 132.533 39.3575 132.183 39.7032C131.834 40.0489 131.309 40.3946 130.785 40.5674C130.261 40.7403 129.736 40.9131 129.212 40.9131H123.619C123.095 40.9131 122.571 40.7403 122.046 40.5674C121.522 40.3946 121.173 40.0489 120.648 39.7032C120.299 39.3575 119.949 38.839 119.774 38.4933C119.6 37.9748 119.425 37.4563 119.425 36.9378C119.425 36.4193 119.6 35.9008 119.774 35.3822C119.949 34.8637 120.299 34.518 120.648 33.9995C120.998 33.481 121.522 33.3082 122.046 33.1353C122.571 32.9625 123.095 32.7896 123.619 32.7896H130.086C130.435 32.7896 130.61 32.6168 130.61 32.2711V31.2341C130.61 30.7156 130.435 30.3699 130.261 30.0242C129.911 29.6785 129.736 29.5057 129.212 29.5057H125.717C125.542 29.5057 125.367 29.5057 125.192 29.3329C125.018 29.16 125.018 28.9872 125.018 28.8143V27.7773C125.018 27.6045 125.018 27.4316 125.192 27.2588C125.367 27.0859 125.542 27.0859 125.717 27.0859H129.212C129.736 27.0859 130.261 27.2588 130.785 27.4316C131.309 27.6045 131.659 27.9501 132.183 28.2958C132.533 28.6415 132.882 29.16 133.057 29.6785C133.232 30.197 133.407 30.7156 133.407 31.2341V36.9378ZM130.61 35.7279C130.61 35.3822 130.435 35.2094 130.086 35.2094H123.619C123.27 35.2094 122.92 35.3822 122.571 35.7279C122.221 36.0736 122.221 36.4193 122.221 36.9378C122.221 37.4563 122.396 37.802 122.571 38.1477C122.92 38.4933 123.095 38.6662 123.619 38.6662H129.212C129.562 38.6662 129.911 38.4933 130.261 38.3205C130.61 38.1477 130.61 37.4563 130.61 36.9378V35.7279Z" fill="white"/>
<path d="M152.982 38.3205C152.807 38.839 152.457 39.1847 152.108 39.5304C151.758 39.8761 151.234 40.2217 150.71 40.3946C150.185 40.5674 149.661 40.7403 149.137 40.7403H145.117C144.593 40.7403 144.068 40.5674 143.544 40.3946C143.02 40.2217 142.67 39.8761 142.146 39.5304C141.622 39.1847 141.447 38.6662 141.272 38.3205C141.097 37.802 140.922 37.2835 140.922 36.7649V31.5798H139.524C139.35 31.5798 139.175 31.5798 139.175 31.4069C139 31.2341 139 31.2341 139 31.0612V29.6785C139 29.5057 139 29.3329 139.175 29.3329C139.35 29.16 139.35 29.16 139.524 29.16H141.097V27.6045C141.097 27.4316 141.097 27.2588 141.272 27.2588C141.447 27.2588 141.447 27.0859 141.622 27.0859H143.369C143.544 27.0859 143.719 27.0859 143.719 27.2588C143.894 27.4316 143.894 27.4316 143.894 27.6045V29.16H152.807C152.982 29.16 153.157 29.16 153.157 29.3329C153.331 29.3329 153.331 29.5057 153.331 29.6785V31.0612C153.331 31.2341 153.331 31.4069 153.157 31.4069C152.982 31.5798 152.982 31.5798 152.807 31.5798H143.894V36.7649C143.894 37.2835 144.068 37.6291 144.243 37.802C144.593 38.1477 144.767 38.3205 145.292 38.3205H149.312C149.661 38.3205 150.011 38.1477 150.36 37.802C150.71 37.4563 150.71 37.1106 150.71 36.7649V35.9008C150.71 35.7279 150.71 35.5551 150.884 35.5551C151.059 35.3822 151.059 35.3822 151.234 35.3822H152.982C153.157 35.3822 153.331 35.3822 153.331 35.5551C153.331 35.7279 153.331 35.9008 153.331 35.9008V36.7649C153.331 37.4563 153.331 37.9748 152.982 38.3205Z" fill="white"/>
<path d="M172.556 36.9378C172.556 37.4563 172.381 37.9748 172.206 38.4933C172.032 39.0119 171.682 39.3575 171.333 39.7032C170.983 40.0489 170.459 40.3946 169.934 40.5674C169.41 40.7403 168.886 40.9131 168.361 40.9131H162.769C162.244 40.9131 161.72 40.7403 161.196 40.5674C160.671 40.3946 160.322 40.0489 159.798 39.7032C159.448 39.3575 159.099 38.839 158.924 38.4933C158.749 37.9748 158.574 37.4563 158.574 36.9378C158.574 36.4193 158.749 35.9008 158.924 35.3822C159.099 34.8637 159.448 34.518 159.798 33.9995C160.147 33.481 160.671 33.3082 161.196 33.1353C161.72 32.9625 162.244 32.7896 162.769 32.7896H169.235C169.585 32.7896 169.76 32.6168 169.76 32.2711V31.2341C169.76 30.7156 169.585 30.3699 169.41 30.0242C169.061 29.6785 168.886 29.5057 168.361 29.5057H164.866C164.691 29.5057 164.516 29.5057 164.342 29.3329C164.167 29.16 164.167 28.9872 164.167 28.8143V27.7773C164.167 27.6045 164.167 27.4316 164.342 27.2588C164.516 27.0859 164.691 27.0859 164.866 27.0859H168.361C168.886 27.0859 169.41 27.2588 169.934 27.4316C170.459 27.6045 170.808 27.9501 171.333 28.2958C171.682 28.6415 172.032 29.16 172.206 29.6785C172.381 30.197 172.556 30.7156 172.556 31.2341V36.9378ZM169.76 35.7279C169.76 35.3822 169.585 35.2094 169.235 35.2094H162.769C162.419 35.2094 162.07 35.3822 161.72 35.7279C161.371 36.0736 161.371 36.4193 161.371 36.9378C161.371 37.4563 161.545 37.802 161.72 38.1477C162.07 38.4933 162.244 38.6662 162.769 38.6662H168.361C168.711 38.6662 169.061 38.4933 169.41 38.3205C169.76 38.1477 169.76 37.802 169.76 37.2835V35.7279Z" fill="white"/>
<path d="M199.121 38.3205C198.947 38.839 198.597 39.1847 198.248 39.5304C197.898 39.8761 197.374 40.2217 196.849 40.3946C196.325 40.5674 195.801 40.7403 195.276 40.7403H191.257C190.732 40.7403 190.208 40.5674 189.684 40.3946C189.159 40.2217 188.81 39.8761 188.286 39.5304C187.761 39.1847 187.586 38.6662 187.412 38.3205C187.237 37.802 187.062 37.2835 187.062 36.7649V31.5798H185.664C185.489 31.5798 185.314 31.5798 185.314 31.4069C185.14 31.2341 185.14 31.2341 185.14 31.0612V29.6785C185.14 29.5057 185.14 29.3329 185.314 29.3329C185.489 29.16 185.489 29.16 185.664 29.16H187.062V27.6045C187.062 27.4316 187.062 27.2588 187.237 27.2588C187.412 27.2588 187.412 27.0859 187.586 27.0859H189.334C189.509 27.0859 189.684 27.0859 189.684 27.2588C189.859 27.4316 189.859 27.4316 189.859 27.6045V29.16H198.772C198.947 29.16 199.121 29.16 199.121 29.3329C199.296 29.5057 199.296 29.5057 199.296 29.6785V31.0612C199.296 31.2341 199.296 31.4069 199.121 31.4069C198.947 31.5798 198.947 31.5798 198.772 31.5798H189.859V36.7649C189.859 37.2835 190.033 37.6291 190.208 37.802C190.558 38.1477 190.732 38.3205 191.257 38.3205H195.276C195.626 38.3205 195.976 38.1477 196.325 37.802C196.675 37.4563 196.675 37.1106 196.675 36.7649V35.9008C196.675 35.7279 196.675 35.5551 196.849 35.5551C197.024 35.5551 197.024 35.3822 197.199 35.3822H198.947C199.121 35.3822 199.296 35.3822 199.296 35.5551C199.471 35.7279 199.471 35.7279 199.471 35.9008V36.7649C199.471 37.4563 199.296 37.9748 199.121 38.3205Z" fill="white"/>
<path d="M219.045 33.8267C218.871 33.9995 218.871 33.9995 218.696 33.9995H217.123C216.948 33.9995 216.773 33.9995 216.773 33.8267C216.598 33.6538 216.598 33.6538 216.598 33.481V31.2341C216.598 30.7156 216.424 30.3699 216.249 30.197C215.899 29.8514 215.725 29.6785 215.2 29.6785H209.608C209.258 29.6785 208.908 29.8514 208.559 30.197C208.209 30.5427 208.209 30.8884 208.209 31.2341V40.3946C208.209 40.5674 208.209 40.7403 208.035 40.7403C207.86 40.9131 207.86 40.9131 207.685 40.9131H205.763C205.588 40.9131 205.413 40.9131 205.413 40.7403C205.238 40.5674 205.238 40.5674 205.238 40.3946V31.2341C205.238 30.7156 205.413 30.197 205.588 29.6785C205.763 29.16 206.112 28.8143 206.462 28.2958C206.811 27.9501 207.336 27.6045 207.86 27.4316C208.384 27.2588 208.908 27.0859 209.433 27.0859H215.026C215.55 27.0859 216.074 27.2588 216.598 27.4316C217.123 27.6045 217.472 27.9501 217.997 28.2958C218.346 28.6415 218.696 29.16 218.871 29.5057C219.045 30.0242 219.22 30.5427 219.22 31.0612V33.3082C219.22 33.6538 219.045 33.6538 219.045 33.8267Z" fill="white"/>
<path d="M223.764 31.0612C223.764 30.5427 223.938 30.0242 224.113 29.5057C224.288 28.9872 224.638 28.6415 224.987 28.2958C225.337 27.9501 225.861 27.6045 226.385 27.4316C226.91 27.2588 227.434 27.0859 227.958 27.0859H233.551C234.075 27.0859 234.6 27.2588 235.124 27.4316C235.648 27.6045 235.998 27.9501 236.522 28.2958C236.872 28.6415 237.221 29.16 237.396 29.5057C237.571 30.0242 237.745 30.5427 237.745 31.0612C237.745 31.5798 237.571 32.0983 237.396 32.6168C237.221 33.1353 236.872 33.481 236.522 33.9995C236.172 34.518 235.648 34.6909 235.124 34.8637C234.6 35.0366 234.075 35.2094 233.551 35.2094H227.084C226.735 35.2094 226.56 35.3822 226.56 35.7279V36.7649C226.56 37.2835 226.735 37.6291 226.91 37.9748C227.259 38.3205 227.434 38.4933 227.958 38.4933H231.454C231.628 38.4933 231.803 38.4933 231.978 38.6662C232.153 38.839 232.153 39.0119 232.153 39.1847V40.2217C232.153 40.3946 232.153 40.5674 231.978 40.7403C231.803 40.9131 231.628 40.9131 231.454 40.9131H227.958C227.434 40.9131 226.91 40.7403 226.385 40.5674C225.861 40.3946 225.511 40.0489 224.987 39.7032C224.638 39.3575 224.288 38.839 224.113 38.3205C223.938 37.802 223.764 37.2835 223.764 36.7649V31.0612ZM226.385 32.2711C226.385 32.6168 226.56 32.7896 226.91 32.7896H233.376C233.726 32.7896 234.075 32.6168 234.425 32.2711C234.774 31.9254 234.774 31.5798 234.774 31.0612C234.774 30.5427 234.6 30.197 234.425 29.8514C234.075 29.5057 233.9 29.3329 233.376 29.3329H227.783C227.434 29.3329 227.084 29.5057 226.735 29.6785C226.385 29.8514 226.385 30.197 226.385 30.7156V32.2711Z" fill="white"/>
<path d="M253.825 40.7403C253.65 40.9131 253.65 40.9131 253.475 40.9131H240.717C240.542 40.9131 240.367 40.9131 240.367 40.7403C240.192 40.5674 240.192 40.5674 240.192 40.3946V39.0119C240.192 38.839 240.192 38.6662 240.367 38.6662C240.542 38.4933 240.542 38.4933 240.717 38.4933H245.086C245.261 38.4933 245.436 38.4933 245.436 38.3205C245.61 38.1477 245.61 38.1477 245.61 37.9748V30.197C245.61 30.0242 245.61 29.8514 245.436 29.8514C245.261 29.6785 245.261 29.6785 245.086 29.6785H243.338C243.164 29.6785 242.989 29.6785 242.989 29.5057C242.814 29.3329 242.814 29.3329 242.814 29.16V27.6045C242.814 27.4316 242.814 27.2588 242.989 27.2588C243.164 27.0859 243.164 27.0859 243.338 27.0859H250.504C250.679 27.0859 250.853 27.0859 250.853 27.2588C251.028 27.4316 251.028 27.4316 251.028 27.6045V28.9872C251.028 29.16 251.028 29.3329 250.853 29.3329C250.679 29.5057 250.679 29.5057 250.504 29.5057H248.756C248.581 29.5057 248.407 29.5057 248.407 29.6785C248.232 29.8514 248.232 29.8514 248.232 30.0242V37.802C248.232 37.9748 248.232 38.1477 248.407 38.1477C248.581 38.3205 248.581 38.3205 248.756 38.3205H253.126C253.3 38.3205 253.475 38.3205 253.475 38.4933C253.65 38.6662 253.65 38.6662 253.65 38.839V40.2217C253.999 40.3946 253.999 40.5674 253.825 40.7403Z" fill="white"/>
<path d="M85.3454 32.4444V35.3827C85.3454 35.7284 85.1706 35.9012 84.9958 36.0741C84.821 36.2469 84.4715 36.4198 84.2967 36.4198H62.9745V39.7037C62.9745 40.0494 62.9745 40.2222 62.9745 40.3951C62.9745 40.5679 62.9745 40.7407 63.1493 40.9136C63.1493 41.0864 63.3241 41.2593 63.3241 41.4321C63.3241 41.6049 63.4989 41.7778 63.6736 41.9506C64.0232 42.2963 64.1979 42.4691 64.5475 42.642C64.897 42.8148 65.2466 42.8148 65.5961 42.8148C65.9457 42.8148 66.1204 42.9877 66.47 43.1605C66.8195 43.3333 66.9943 43.679 66.9943 44.0247V46.2716C66.9943 46.6173 66.8195 46.963 66.47 47.1358C66.1204 47.4815 65.7709 47.6543 65.5961 47.6543C64.3727 47.6543 63.3241 47.4815 62.2755 46.963C62.1007 46.963 62.1007 46.7901 61.9259 46.7901H61.7511C61.4016 46.6173 61.2268 46.6173 61.052 46.4444C61.052 46.4444 60.8773 46.4444 60.8773 46.2716C60.5277 46.0988 60.353 45.9259 60.1782 45.7531C60.0034 45.5802 59.8286 45.5802 59.6539 45.2346C59.3043 44.8889 58.9548 44.5432 58.6052 44.0247C58.2557 43.5062 58.0809 43.1605 57.9062 42.642C57.7314 42.4691 57.7314 42.1235 57.7314 41.9506C57.5566 41.7778 57.5566 41.4321 57.5566 41.2593C57.5566 41.0864 57.5566 40.7407 57.3818 40.5679V40.3951C57.3818 40.2222 57.3818 39.8765 57.3818 39.7037V21.2099C57.3818 20.8642 57.5566 20.6914 57.7314 20.5185C57.9062 20.1728 58.0809 20 58.4305 20H61.7511C62.1007 20 62.2755 20.1728 62.4502 20.3457L62.625 20.5185C62.7998 20.6914 62.7998 20.8642 62.7998 21.037V31.2346H84.122C84.4715 31.2346 84.6463 31.4074 84.821 31.5802C85.3454 31.9259 85.3454 32.0988 85.3454 32.4444Z" fill="#00A35F"/>
<path d="M52.1383 40.2222C52.1383 41.2593 51.9635 42.2963 51.4392 43.3333C50.9149 44.3704 50.3906 45.0617 49.6915 45.7531C48.9924 46.4444 48.1185 46.963 47.0699 47.4815C46.0213 47.8272 44.9726 48 43.7492 48H32.3891C31.1657 48 30.117 47.8272 29.0684 47.4815C28.0198 47.1358 27.1459 46.6173 26.4468 45.7531C25.7477 45.0617 25.0486 44.1975 24.6991 43.3333C24.1748 42.2963 24 41.2593 24 40.0494V39.1852C24 38.1481 24.1748 36.9383 24.6991 36.0741C25.2234 35.037 25.7477 34.3457 26.4468 33.6543C27.1459 32.963 28.1945 32.4444 29.0684 32.0988C30.117 31.7531 31.1657 31.5802 32.3891 31.5802H46.3708V21.037C46.3708 20.6914 46.5456 20.5185 46.7204 20.3457C47.0699 20.1728 47.2447 20 47.5942 20H50.9149C51.2644 20 51.4392 20.1728 51.7888 20.3457C51.9635 20.5185 52.1383 20.8642 52.1383 21.2099V40.2222ZM46.5456 37.4568C46.5456 36.7654 46.196 36.5926 45.6717 36.5926H32.3891C31.69 36.4198 30.9909 36.7654 30.4666 37.284C29.9422 37.8025 29.5927 38.4938 29.5927 39.358V40.2222C29.5927 41.0864 29.9422 41.7778 30.4666 42.2963C30.9909 42.8148 31.69 42.9877 32.3891 42.9877H43.7492C44.6231 42.9877 45.1474 42.8148 45.6717 42.2963C46.196 41.7778 46.5456 41.0864 46.5456 40.2222V37.4568Z" fill="#00A35F"/>
</g>
<defs>
<clipPath id="clip0_6701_30404">
<rect width="230" height="28" fill="white" transform="translate(24 20)"/>
</clipPath>
</defs>
</svg>
